Coordinates
version=1
nRows=31
nColumns=33
inDegrees=yes

Units are S.I. units (second, meters, Newtons, ...)
Angles are in degrees.

endheader
time	ground_thorax_rot_x	ground_thorax_rot_y	ground_thorax_rot_z	ground_thorax_tx	ground_thorax_ty	ground_thorax_tz	clav_prot_r	clav_elev_r	scapula_abduction_r	scapula_elevation_r	scapula_upward_rot_r	scapula_winging_r	shoulder_elv_r	plane_of_elev_r	axial_rot_r	elbow_flexion_r	pro_sup_r	wrist_flex_r	wrist_dev_r	clav_prot_l	clav_elev_l	scapula_abduction_l	scapula_elevation_l	scapula_upward_rot_l	scapula_winging_l	shoulder_elv_l	plane_of_elev_l	axial_rot_l	elbow_flexion_l	pro_sup_l	wrist_flex_l	wrist_dev_l	
6.0900	-37.157002	-12.767748	23.637405	-239.870760	826.325967	9.015694	6.886023	-45.000000	38.050514	-45.000000	-36.562248	2056.817285	-2626.765032	145.691851	-120.552499	1098.299189	74.674241	15.055176	1.180519	13.351720	36.809881	-34.630164	-45.000000	-45.000000	-2075.303013	988.365104	135.053802	-180.000000	734.031136	55.936782	-0.031068	-19.303983	
6.1000	-37.069746	-12.838702	23.831609	-238.241716	826.223524	8.987899	6.883285	-45.000000	38.139122	-45.000000	-36.248352	2056.859466	-2626.784251	145.674652	-120.655408	1098.230167	74.105557	15.194166	1.205657	13.380287	36.824306	-34.752818	-45.000000	-45.000000	-2075.297729	988.388662	135.000176	-180.000000	734.057334	55.584646	0.004725	-19.372215	
6.1100	-36.989198	-12.903772	24.015438	-236.540432	826.085006	8.965586	6.869776	-45.000000	38.222701	-45.000000	-35.919448	2056.908201	-2626.816281	145.659683	-120.754777	1098.142882	73.387168	15.347409	1.240938	13.437312	36.853036	-34.886907	-45.000000	-45.000000	-2075.286696	988.415170	134.933190	-180.000000	734.072046	55.164873	0.055046	-19.451219	
6.1200	-36.907786	-12.972766	24.195579	-234.764236	825.907581	8.949229	6.846655	-45.000000	38.305917	-45.000000	-35.571971	2056.961713	-2626.851380	145.650383	-120.850973	1098.042039	72.484829	15.520001	1.287461	13.522156	36.897441	-35.024583	-45.000000	-45.000000	-2075.271091	988.437569	134.857236	-180.000000	734.079125	54.662714	0.120368	-19.540312	
6.1300	-36.828621	-13.045627	24.373486	-232.910960	825.689603	8.939766	6.814672	-45.000000	38.386363	-45.000000	-35.211781	2057.022116	-2626.894907	145.648311	-120.946437	1097.916768	71.365049	15.713289	1.350545	13.633415	36.957573	-35.167567	-45.000000	-45.000000	-2075.251886	988.458998	134.770648	-180.000000	734.072099	54.065909	0.204323	-19.640065	
6.1400	-36.739536	-13.136947	24.565058	-230.978315	825.429936	8.938347	6.777722	-45.000000	38.468139	-45.000000	-34.850761	2057.084979	-2626.934741	145.657176	-121.036175	1097.773959	69.994435	15.931954	1.433084	13.757551	37.025519	-35.306998	-45.000000	-45.000000	-2075.236442	988.468473	134.685169	-180.000000	734.057602	53.362316	0.306231	-19.747490	
6.1500	-36.644213	-13.245658	24.772292	-228.964547	825.127693	8.946111	6.734061	-45.000000	38.546378	-45.000000	-34.497246	2057.151968	-2626.977786	145.677972	-121.119339	1097.603272	68.340496	16.177613	1.543317	13.892454	37.098016	-35.449267	-45.000000	-45.000000	-2075.227704	988.465626	134.603858	-180.000000	734.028087	52.542199	0.429125	-19.860883	
6.1600	-36.535716	-13.381545	25.002343	-226.867716	824.781435	8.963711	6.692846	-45.000000	38.625938	-45.000000	-34.166589	2057.218466	-2627.018225	145.707182	-121.186718	1097.411246	66.383166	16.449222	1.684590	14.020640	37.165826	-35.587301	-45.000000	-45.000000	-2075.227821	988.444660	134.532484	-180.000000	733.990392	51.600861	0.573596	-19.979085	
6.1700	-36.418661	-13.544993	25.257352	-224.686276	824.389166	8.991251	6.653605	-45.000000	38.702284	-45.000000	-33.865188	2057.286280	-2627.066942	145.745291	-121.233075	1097.184670	64.104793	16.744270	1.867292	14.138332	37.224474	-35.725980	-45.000000	-45.000000	-2075.240133	988.408819	134.474254	-180.000000	733.933368	50.535788	0.742505	-20.098674	
6.1800	-36.292603	-13.736498	25.535476	-222.419034	823.948112	9.027741	6.622712	-45.000000	38.776521	-45.000000	-33.601531	2057.353747	-2627.121974	145.788784	-121.250300	1096.929410	61.505472	17.056049	2.094273	14.239659	37.271516	-35.860386	-45.000000	-45.000000	-2075.262100	988.359480	134.424222	-180.000000	733.862742	49.350618	0.937347	-20.219861	
6.1900	-36.160633	-13.955222	25.835013	-220.065652	823.455017	9.071272	6.596078	-45.000000	38.846847	-45.000000	-33.368822	2057.422973	-2627.186837	145.839960	-121.231819	1096.641122	58.587226	17.379693	2.372685	14.331732	37.310410	-35.991070	-45.000000	-45.000000	-2075.294529	988.300191	134.381383	-180.000000	733.772871	48.048361	1.159477	-20.339503	
6.2000	-36.025428	-14.197047	26.146867	-217.626739	822.906411	9.118738	6.576563	-45.000000	38.914769	-45.000000	-33.163229	2057.494112	-2627.266106	145.896433	-121.167763	1096.322116	55.371574	17.703015	2.703641	14.416701	37.345298	-36.112367	-45.000000	-45.000000	-2075.335194	988.237190	134.335979	-180.000000	733.668749	46.637637	1.410726	-20.458838	
6.2100	-35.884154	-14.468998	26.476984	-215.103406	822.298970	9.166845	6.570622	-45.000000	38.980926	-45.000000	-32.989760	2057.566143	-2627.360053	145.958020	-121.050228	1095.975976	51.904952	18.015716	3.086315	14.484030	37.372145	-36.217491	-45.000000	-45.000000	-2075.387368	988.171742	134.290426	-180.000000	733.550405	45.134416	1.690918	-20.573972	
6.2200	-35.741253	-14.766603	26.817090	-212.497255	821.629726	9.212242	6.574277	-45.000000	39.043393	-45.000000	-32.844422	2057.641354	-2627.473482	146.025461	-120.875635	1095.611997	48.251692	18.305660	3.516321	14.540714	37.395431	-36.308097	-45.000000	-45.000000	-2075.450659	988.105570	134.242657	-180.000000	733.419750	43.558264	1.999359	-20.683166	
6.2300	-35.592994	-15.092849	27.170796	-209.809102	820.896175	9.252762	6.584639	-45.000000	39.103367	-45.000000	-32.725894	2057.718706	-2627.599798	146.099796	-120.638859	1095.243742	44.487702	18.565634	3.986482	14.586307	37.414445	-36.383271	-45.000000	-45.000000	-2075.527160	988.033951	134.197865	-180.000000	733.282280	41.928786	2.332673	-20.782198	
6.2400	-35.442479	-15.445234	27.534121	-207.039059	820.096547	9.287236	6.597463	-45.000000	39.158327	-45.000000	-32.630714	2057.800589	-2627.744256	146.181352	-120.339498	1094.877464	40.692862	18.786161	4.488745	14.624966	37.430981	-36.445587	-45.000000	-45.000000	-2075.617067	987.958254	134.156640	-180.000000	733.139104	40.265926	2.688839	-20.868833	
6.2500	-35.289158	-15.827024	27.910190	-204.185962	819.229986	9.316050	6.621670	-45.000000	39.210049	-45.000000	-32.565360	2057.884882	-2627.904263	146.266629	-119.982560	1094.523137	36.962691	18.961692	5.008996	14.647977	37.442081	-36.491479	-45.000000	-45.000000	-2075.716710	987.878885	134.115875	-180.000000	732.993534	38.596382	3.065852	-20.941741	
6.2600	-35.137199	-16.235623	28.296419	-201.248598	818.296665	9.339836	6.644413	-45.000000	39.253977	-45.000000	-32.521991	2057.975731	-2628.081758	146.361695	-119.574971	1094.189631	33.370180	19.091957	5.538249	14.668552	37.451966	-36.529520	-45.000000	-45.000000	-2075.828253	987.789097	134.082701	-180.000000	732.840785	36.940746	3.459231	-20.996936	
6.2700	-34.983342	-16.671410	28.695493	-198.226079	817.297787	9.359142	6.672925	-45.000000	39.292923	-45.000000	-32.506233	2058.068759	-2628.270014	146.461387	-119.126675	1093.884486	29.986253	19.177366	6.063591	14.679443	37.457667	-36.555639	-45.000000	-45.000000	-2075.950671	987.686605	134.053965	-180.000000	732.687219	35.323456	3.865304	-21.034679	
6.2800	-34.832133	-17.131176	29.102670	-195.118729	816.235496	9.373511	6.698129	-45.000000	39.323196	-45.000000	-32.510976	2058.168527	-2628.471892	146.568572	-118.649577	1093.610222	26.853285	19.222666	6.577214	14.692195	37.463264	-36.574580	-45.000000	-45.000000	-2076.084273	987.570530	134.031136	-180.000000	732.528024	33.765432	4.280164	-21.053074	
6.2900	-34.682273	-17.614663	29.519375	-191.928010	815.112879	9.381925	6.737782	-45.000000	39.348364	-45.000000	-32.546999	2058.271432	-2628.686598	146.674529	-118.158899	1093.366314	24.021994	19.229467	7.066756	14.693904	37.465160	-36.576500	-45.000000	-45.000000	-2076.222973	987.448954	134.001035	-180.000000	732.368647	32.297658	4.701220	-21.055491	
6.3000	-34.536207	-18.119365	29.942966	-188.656189	813.933730	9.382858	6.778821	-45.000000	39.367011	-45.000000	-32.607646	2058.382144	-2628.913750	146.784108	-117.664054	1093.155095	21.508600	19.206406	7.529539	14.696196	37.466479	-36.569193	-45.000000	-45.000000	-2076.368342	987.318033	133.970857	-180.000000	732.205411	30.943001	5.121327	-21.039818	
6.3100	-34.388657	-18.641728	30.376727	-185.306301	812.702729	9.375074	6.813088	-45.000000	39.376849	-45.000000	-32.686931	2058.499345	-2629.144102	146.896786	-117.174967	1092.972744	19.313966	19.159206	7.963236	14.704570	37.471105	-36.550769	-45.000000	-45.000000	-2076.526329	987.178076	133.944937	-180.000000	732.045042	29.718211	5.534115	-21.008175	
6.3200	-34.239504	-19.183694	30.819186	-181.881443	811.425209	9.357970	6.845192	-45.000000	39.378943	-45.000000	-32.787356	2058.622760	-2629.378824	147.010380	-116.696212	1092.818481	17.431739	19.094555	8.365301	14.714431	37.477141	-36.517763	-45.000000	-45.000000	-2076.693893	987.033293	133.921634	-180.000000	731.887228	28.641517	5.935845	-20.962760	
6.3300	-34.087164	-19.742300	31.271644	-178.385207	810.107186	9.331879	6.867635	-45.000000	39.371813	-45.000000	-32.905975	2058.753358	-2629.615063	147.126599	-116.234289	1092.688068	15.850803	19.017380	8.736218	14.729588	37.488070	-36.469924	-45.000000	-45.000000	-2076.876771	986.883831	133.907296	-180.000000	731.733841	27.727213	6.321650	-20.906466	
6.3400	-33.931909	-20.317375	31.731336	-174.821405	808.754899	9.297881	6.883062	-45.000000	39.357789	-45.000000	-33.044896	2058.891461	-2629.855121	147.244086	-115.789069	1092.580165	14.554444	18.933532	9.076415	14.747087	37.500954	-36.408812	-45.000000	-45.000000	-2077.072813	986.727955	133.903186	-180.000000	731.582751	26.988314	6.688217	-20.841780	
6.3500	-33.772639	-20.902682	32.197816	-171.194841	807.374614	9.257611	6.878170	-45.000000	39.333524	-45.000000	-33.196813	2059.037614	-2630.094702	147.366103	-115.364168	1092.490478	13.519073	18.846370	9.389904	14.774771	37.519516	-36.340153	-45.000000	-45.000000	-2077.290023	986.561101	133.920358	-180.000000	731.435985	26.430297	7.030737	-20.771681	
6.3600	-33.610848	-21.499790	32.668865	-167.510772	805.972025	9.213071	6.872284	-45.000000	39.301824	-45.000000	-33.371325	2059.190222	-2630.340730	147.486906	-114.957252	1092.413976	12.729710	18.758546	9.674657	14.800392	37.536895	-36.256849	-45.000000	-45.000000	-2077.516786	986.391777	133.944075	-180.000000	731.292580	26.063315	7.349968	-20.700864	
6.3700	-33.445635	-22.102496	33.145853	-163.775038	804.551921	9.166439	6.865533	-45.000000	39.262006	-45.000000	-33.570539	2059.350379	-2630.592562	147.608796	-114.568436	1092.346153	12.166636	18.672044	9.933078	14.825086	37.554523	-36.160109	-45.000000	-45.000000	-2077.754159	986.220171	133.973528	-180.000000	731.153635	25.890297	7.644734	-20.633138	
6.3800	-33.274008	-22.714003	33.630965	-159.993440	803.117816	9.119867	6.876142	-45.000000	39.215880	-45.000000	-33.804191	2059.517251	-2630.852615	147.725584	-114.195644	1092.282935	11.810589	18.588250	10.164685	14.837670	37.567182	-36.040213	-45.000000	-45.000000	-2077.993572	986.053006	133.996703	-180.000000	731.017220	25.911389	7.917637	-20.572355	
6.3900	-33.094457	-23.328977	34.125891	-156.171854	801.672005	9.075300	6.891391	-45.000000	39.160551	-45.000000	-34.070396	2059.690605	-2631.114440	147.841837	-113.841131	1092.223607	11.633348	18.508194	10.374294	14.846178	37.580367	-35.901341	-45.000000	-45.000000	-2078.242209	985.886414	134.023648	-180.000000	730.884729	26.116048	8.168518	-20.521162	
